<svg width="24" height="25" viewBox="0 0 24 25" fill="none" xmlns="http://www.w3.org/2000/svg">
<g clip-path="url(#clip0_3501_1800)">
<path d="M14.0869 21.9433C14.0351 22.0929 13.9374 22.2223 13.8077 22.313C13.678 22.4037 13.5229 22.451 13.3647 22.4482C13.2065 22.4454 13.0532 22.3926 12.9267 22.2973C12.8003 22.2021 12.7073 22.0693 12.6609 21.918L10.4531 14.7414C10.4172 14.6243 10.3531 14.5178 10.2665 14.4312C10.1798 14.3446 10.0733 14.2805 9.95623 14.2446L2.77966 12.0414C2.62834 11.9951 2.49556 11.902 2.40034 11.7756C2.30511 11.6492 2.25231 11.4959 2.2495 11.3377C2.24669 11.1794 2.29402 11.0243 2.3847 10.8946C2.47538 10.7649 2.60477 10.6672 2.75435 10.6155L19.2544 4.49551C19.3867 4.45049 19.529 4.44337 19.6652 4.47494C19.8014 4.50651 19.9261 4.57553 20.0251 4.67419C20.1242 4.77286 20.1937 4.89724 20.2258 5.03331C20.2579 5.16938 20.2513 5.31172 20.2069 5.44426L14.0869 21.9433Z" stroke="#4D4D4D" stroke-width="1.5" stroke-linecap="round" stroke-linejoin="round"/>
</g>
<defs>
<clipPath id="clip0_3501_1800">
<rect width="24" height="24" fill="white" transform="matrix(-1 0 0 1 24 0.697754)"/>
</clipPath>
</defs>
</svg>
