<svg width="31" height="31" viewBox="0 0 31 31" fill="none" xmlns="http://www.w3.org/2000/svg">
<g clip-path="url(#clip0_3501_1793)">
<path d="M25.1323 12.8855C25.1323 21.323 15.7573 27.8855 15.7573 27.8855C15.7573 27.8855 6.38232 21.323 6.38232 12.8855C6.38232 10.3991 7.37004 8.01453 9.1282 6.25637C10.8864 4.49822 13.2709 3.5105 15.7573 3.5105C18.2437 3.5105 20.6283 4.49822 22.3864 6.25637C24.1446 8.01453 25.1323 10.3991 25.1323 12.8855Z" fill="#A103D3"/>
<path d="M15.7563 16.6355C17.8274 16.6355 19.5063 14.9566 19.5063 12.8855C19.5063 10.8144 17.8274 9.1355 15.7563 9.1355C13.6853 9.1355 12.0063 10.8144 12.0063 12.8855C12.0063 14.9566 13.6853 16.6355 15.7563 16.6355Z" fill="#EEEEEE"/>
</g>
<defs>
<clipPath id="clip0_3501_1793">
<rect width="30" height="30" fill="white" transform="translate(0.756348 0.697754)"/>
</clipPath>
</defs>
</svg>
